<?xml version="1.0" encoding="UTF-8" standalone="no"?>
<!-- Created with Serif DrawPlus 12,0,4,27 (May 24, 08:37:51) (http://www.serif.com) -->
<svg version="1.1" xmlns="http://www.w3.org/2000/svg" xmlns:xlink="http://www.w3.org/1999/xlink" width="768" height="768">
	<g id="top">
		<path id="dp_path001" fill="white" fill-rule="evenodd" stroke="black" stroke-width="3.33333" d="M 608.645,644.377 C 608.645,644.377 159.64,644.456 159.64,644.456 C 149.187,556.043 11.7067,202.389 96.92,113.976 C 182.133,25.5627 585.632,25.576 670.92,113.976 C 756.208,202.376 619.524,555.977 608.645,644.377 Z "/>
		<path id="dp_path002" fill="white" fill-rule="evenodd" stroke="black" stroke-width="3.33333" d="M 606.76,643.512 C 701.645,337.605 655.32,239.472 582.048,151.181"/>
		<path id="dp_path003" fill="white" fill-rule="evenodd" stroke="black" stroke-width="3.33333" d="M 557.301,638.017 C 583.313,541.115 561.081,235.029 483.78,143.623"/>
		<path id="dp_path004" fill="white" fill-rule="evenodd" stroke="black" stroke-width="3.33333" d="M 506.744,639.116 C 513.704,450.26 413.452,224.769 400.631,143.623"/>
		<path id="dp_path005" fill="white" fill-rule="evenodd" stroke="black" stroke-width="3.33333" d="M 439.701,633.62 C 413.675,418.967 304.073,262.657 309.921,143.623"/>
		<path id="dp_path006" fill="white" fill-rule="evenodd" stroke="black" stroke-width="3.33333" d="M 371.559,635.819 C 352.763,492.239 231.416,313.58 219.213,143.623"/>
		<path id="dp_path007" fill="white" fill-rule="evenodd" stroke="black" stroke-width="3.33333" d="M 304.516,631.423 C 243.148,480.881 152.64,384.288 120.945,143.623"/>
		<path id="dp_path008" fill="white" fill-rule="evenodd" stroke="black" stroke-width="3.33333" d="M 227.581,631.423 C 213.839,550.123 -5.38267,318.656 79.124,143.623"/>
		<g id="dp_dp009" transform="matrix(1,0,0,1,157.691,669.628)">
			<path id="dp_path010" fill="black" d="M 68.6053,-63.1 L 65.9947,-63.248 L 82.5,-104.251 L 84.0707,-104.992 L 85.456,-105.587 C 93.1027,-108.853 101.157,-110.485 109.62,-110.485 L 114.309,-110.485 C 119.864,-110.485 124.615,-109.991 128.563,-108.989 C 130.64,-108.395 134.588,-107.504 140.377,-106.304 L 141.417,-106.156 L 145.587,-105.711 C 147.789,-105.512 149.409,-105.76 150.449,-106.452 C 151.031,-106.848 152.02,-107.975 153.405,-109.855 L 155.671,-112.96 L 158.095,-112.96 L 156.709,-110.14 L 156.189,-109.397 L 149.236,-94.5627 C 148.779,-93.672 147.331,-91.3947 144.893,-87.7453 C 141.528,-82.796 136.839,-80.3213 130.813,-80.3213 C 128.389,-80.3213 124.739,-80.7667 119.864,-81.6587 L 114.136,-82.6973 C 109.731,-83.4893 105.735,-83.8853 102.147,-83.8853 C 84.764,-83.8853 73.5787,-76.956 68.6053,-63.1 Z M 86.6813,-40.384 L 90.504,-37.2653 L 90.6773,-38.6027 L 91.024,-39.7893 L 91.8907,-42.3133 L 97.0987,-59.0907 C 97.916,-61.664 98.324,-63.644 98.324,-65.0293 C 98.324,-66.8107 97.5693,-68.296 96.06,-69.484 L 93.6347,-71.4133 L 96.9253,-73.9373 C 102.259,-77.996 108.111,-80.0253 114.483,-80.0253 C 116.103,-80.0253 117.785,-79.876 119.517,-79.58 C 114.891,-77.3027 111.823,-72.9973 110.313,-66.6747 L 109.967,-65.1907 L 103.36,-38.3293 C 103.248,-36.944 102.667,-35.064 101.627,-32.688 L 99.7093,-28.2467 L 100.576,-26.464 L 101.268,-24.5347 C 103.124,-19.388 104.052,-14.2413 104.052,-9.09333 L 104.052,-4.20667 C 103.941,-3.61333 103.705,-2.57333 103.36,-1.08933 L 102.493,2.47467 L 99.8827,2.47467 L 100.613,-1.22533 C 101.095,-3.7 101.331,-6.47067 101.331,-9.52667 C 101.331,-15.7507 99.8213,-20.6 96.8147,-24.052 L 94.3773,-21.8253 L 92.1133,-19.152 L 89.5027,-16.1827 C 84.2933,-10.244 77.6253,-5.64133 69.508,-2.376 C 63.0133,0.197333 54.612,1.48533 44.2933,1.48533 C 40.4707,1.48533 33.864,0.0493333 24.4733,-2.82133 C 18.6827,-4.60267 13.956,-7.86933 10.3067,-12.62 C 6.656,-17.3707 4.82533,-22.4187 4.82533,-27.764 C 4.82533,-31.228 5.92667,-34.9893 8.12933,-39.048 C 10.3307,-43.1053 12.9907,-46.2733 16.1213,-48.5493 C 20.6373,-51.816 27.1333,-54.0427 35.5827,-55.2307 C 37.6747,-55.528 39.988,-55.676 42.536,-55.676 C 49.4893,-55.676 55.6267,-54.8347 60.9587,-53.152 C 71.8467,-49.688 80.4213,-45.432 86.6813,-40.384 Z M 87.8933,-34 C 84.652,-37.1547 79.7773,-39.7773 73.2947,-41.844 C 67.3933,-43.724 61.7133,-44.664 56.2693,-44.664 C 42.0173,-44.664 34.8907,-40.0253 34.8907,-30.7333 C 34.9773,-30.5347 35.0147,-29.9413 35.0147,-28.952 C 35.2493,-24.8067 37.736,-21.6893 42.5,-19.6227 C 46.3227,-17.8413 50.9,-16.9507 56.2333,-16.9507 C 65.4013,-16.9507 73.1093,-19.4253 79.3693,-24.3613 C 84.0093,-28.0107 86.8547,-31.228 87.8933,-34 Z "/>
			<path id="dp_path011" fill="black" d="M 172.941,-63.6933 L 169.985,-61.6147 C 157.897,-53.1027 151.859,-42.9573 151.859,-31.1787 C 151.859,-25.1413 154.296,-20.6373 159.172,-17.668 C 161.732,-16.084 164.405,-15.292 167.189,-15.292 C 170.208,-15.292 173.227,-16.1827 176.245,-17.9653 L 178.856,-19.8947 C 181.999,-22.2707 184.201,-25.5987 185.475,-29.8547 L 186.353,-32.824 C 186.7,-34.012 186.873,-35.3973 186.873,-36.9813 C 186.873,-43.9227 182.58,-47.3867 174.005,-47.3867 C 167.04,-47.3867 162.228,-44.256 159.567,-38.008 L 156.437,-37.5627 C 159.679,-47.2627 165.011,-54.884 172.423,-60.4267 L 177.644,-64.2867 C 178.807,-64.4853 179.672,-64.584 180.255,-64.584 C 184.769,-64.584 189.583,-61.8627 194.68,-56.4187 C 197.811,-53.0413 199.369,-47.7947 199.369,-40.668 C 199.369,-34.6187 197.687,-28.284 194.333,-21.64 C 189.695,-12.4347 183.669,-5.75333 176.257,-1.584 C 173.82,-0.197333 171.333,0.693333 168.785,1.08933 L 164.256,1.83067 C 163.675,1.93067 162.76,1.98 161.485,1.98 C 152.676,1.98 145.833,-0.890667 140.972,-6.644 C 136.679,-11.692 134.537,-18.1253 134.537,-25.9573 C 134.537,-30.9067 136.567,-36.6467 140.625,-43.192 C 142.592,-46.4587 145.141,-49.4773 148.271,-52.2493 C 156.029,-59.2893 164.256,-63.1 172.941,-63.6933 Z "/>
			<path id="dp_path012" fill="black" d="M 282.648,-60.7613 L 285.432,-59.5733 L 256.233,-45.432 C 255.652,-48.3027 253.561,-49.7373 249.973,-49.7373 C 243.601,-49.7373 238.553,-47.312 234.853,-42.4627 C 230.56,-36.82 228.42,-31.8213 228.42,-27.4667 C 228.42,-24.3987 229.287,-21.924 231.031,-20.044 C 232.999,-17.8653 235.72,-16.7773 239.196,-16.7773 C 244.876,-16.7773 249.627,-19.4493 253.449,-24.7947 C 256.691,-29.248 258.312,-33.5547 258.312,-37.7107 C 258.312,-39.0973 257.855,-40.68 256.927,-42.4627 L 287.337,-56.864 L 284.555,-53.152 L 283.168,-51.5187 L 281.956,-50.0347 C 279.976,-47.56 277.205,-41.176 273.604,-30.8813 C 272.8,-28.308 271.352,-24.2 269.261,-18.5587 L 263.013,-3.11733 C 256.172,13.684 252.757,24.5587 252.757,29.508 C 252.757,31.1907 253.041,33.2573 253.623,35.732 L 254.489,38.1067 C 251.136,37.5253 245.172,37.2413 236.599,37.2413 L 229.125,37.2413 L 224.436,37.2413 L 227.047,34.5933 L 230.883,30.9307 C 232.627,29.1613 234.607,25.8827 236.809,21.0827 C 237.86,18.348 239.952,13.152 243.081,5.51867 L 251.903,-15.5773 C 249.119,-10.2573 244.021,-5.27067 236.611,-0.630667 C 234.063,0.94 231.105,1.732 227.74,1.732 C 216.728,1.732 211.223,-5.444 211.223,-19.796 C 211.223,-32.168 219.624,-44.4413 236.425,-56.616 C 244.183,-62.2587 252.992,-65.0787 262.84,-65.0787 C 269.324,-65.0787 275.931,-63.644 282.648,-60.7613 Z "/>
			<path id="dp_path013" fill="black" d="M 298.361,-38.7507 L 295.924,-38.7507 L 299.053,-46.0253 C 304.263,-58.1013 311.216,-64.1387 319.901,-64.1387 C 327.089,-64.1387 330.677,-61.0707 330.677,-54.9467 C 330.677,-53.56 330.504,-52.2733 330.145,-51.0853 L 329.428,-48.7107 L 320.272,-25.524 C 319.221,-22.9507 318.689,-20.4893 318.689,-18.1133 C 318.689,-15.7373 320.309,-14.5493 323.551,-14.5493 C 324.368,-14.5493 325.704,-14.9453 327.548,-15.7373 C 331.024,-17.2227 334.265,-20.9707 337.284,-27.0093 C 339.14,-30.6707 341.219,-35.856 343.545,-42.5853 C 346.316,-50.2933 347.715,-55.4413 347.715,-58.0147 C 347.715,-60.476 347.133,-62.7533 345.971,-64.832 C 350.14,-63.8787 354.371,-63.396 358.652,-63.396 C 365.148,-63.396 369.663,-64.0773 372.212,-65.4507 C 370.009,-62.964 367.523,-57.7547 364.739,-49.824 C 363.353,-45.3573 360.161,-37.0187 355.188,-24.8187 L 354.841,-24.0773 L 353.616,-20.204 C 353.393,-19.512 353.269,-18.3733 353.269,-16.7773 C 353.269,-15.688 354.024,-15.0453 355.533,-14.8467 C 358.317,-14.8467 360.916,-17.42 363.353,-22.568 L 364.047,-24.052 L 367.003,-23.7547 L 366.484,-22.864 L 364.047,-18.2613 L 360.396,-12.0267 C 359.233,-10.0467 357.785,-8.01733 356.053,-5.93867 C 351.996,-1.08933 347.937,1.188 343.892,0.890667 L 341.628,0.742667 C 336.072,0.346667 333.288,-3.36533 333.288,-10.3933 L 333.981,-15.8867 L 334.675,-18.5587 L 331.371,-14.5627 L 330.851,-13.82 L 329.119,-11.296 L 326.508,-8.04267 C 321.3,-1.52133 315.212,1.732 308.259,1.732 C 301.195,1.732 297.656,-1.23733 297.656,-7.164 C 297.656,-8.252 297.78,-9.292 298.015,-10.2693 L 298.88,-13.9813 L 299.4,-15.6147 C 299.747,-16.7027 301.664,-21.64 305.128,-30.436 C 308.259,-38.3547 309.831,-42.908 309.831,-44.096 C 309.831,-44.5907 309.768,-44.9867 309.657,-45.2827 C 309.299,-46.768 308.197,-47.5107 306.353,-47.5107 C 304.497,-47.5107 302.753,-46.124 301.132,-43.3533 Z "/>
			<path id="dp_path014" fill="black" d="M 406.62,-26.724 C 402.561,-29.496 400.532,-32.416 400.532,-35.484 L 401.745,-34.136 C 404.764,-30.844 408.303,-29.1987 412.373,-29.1987 C 415.973,-29.1987 419.079,-30.3373 421.689,-32.6267 C 424.3,-34.9027 425.611,-37.588 425.611,-40.656 C 425.611,-45.32 423.236,-48.1533 418.472,-49.144 C 416.616,-49.5387 414.996,-49.7373 413.597,-49.7373 C 408.376,-49.7373 404.021,-47.56 400.532,-43.204 C 397.291,-39.332 395.657,-35.076 395.657,-30.424 C 395.657,-25.5733 397.724,-21.528 401.832,-18.3107 C 405.939,-15.0947 410.9,-13.4853 416.691,-13.4853 C 420.972,-13.4853 424.919,-14.4267 428.507,-16.3067 L 432.156,-18.2493 L 433.715,-19.288 L 437.019,-21.664 C 442.116,-25.3267 445.481,-29.1493 447.103,-33.108 L 449.54,-32.6627 L 448.488,-30.7333 L 446.756,-27.764 C 443.044,-21.516 440.149,-17.16 438.071,-14.6867 L 433.543,-9.48933 C 433.196,-9.09333 432.676,-8.54933 431.983,-7.856 C 425.723,-1.708 417.903,1.36133 408.525,1.36133 C 400.755,1.36133 394.445,-1.26133 389.583,-6.508 C 385.067,-11.2587 382.803,-17.0493 382.803,-23.8787 C 382.803,-25.66 382.976,-27.392 383.323,-29.0747 L 383.841,-31.5987 C 384.547,-34.7667 386.107,-38.2307 388.544,-41.992 C 390.981,-45.7533 393.592,-48.772 396.363,-51.0493 L 403.156,-56.5427 C 409.873,-61.9853 416.889,-64.708 424.188,-64.708 C 426.391,-64.708 428.717,-64.3613 431.155,-63.668 C 440.656,-60.8973 445.407,-55.5147 445.407,-47.4973 C 445.407,-43.44 443.923,-39.456 440.965,-35.5467 C 438.008,-31.6493 434.396,-28.704 430.103,-26.724 C 425.809,-24.7453 421.516,-23.7547 417.223,-23.7547 C 413.053,-23.7547 409.515,-24.7453 406.62,-26.724 Z "/>
		</g>
		<path id="rim" fill="white" fill-rule="evenodd" stroke="black" stroke-width="3.33333" d="M 131.241,541.752 L 130.068,695.621 C 214.767,729.38 554.735,728.215 639.433,694.224 L 638.26,541.752 C 553.561,507.993 215.941,507.76 131.241,541.752 Z "/>
		<g id="dp_dp015" transform="matrix(1,0,0,1,157.691,669.756)">
			<path id="dp_path016" fill="black" d="M 56.1707,-82.6853 L 55.9973,0 L 23.508,0 L 23.508,-82.6853 L -1.064,-82.6853 L -1.064,-106.897 L 80.4453,-106.897 L 80.4453,-82.6853 Z "/>
			<path id="dp_path017" fill="black" d="M 123.265,1.608 C 110.397,1.608 99.8067,-2.15333 91.492,-9.66267 C 83.1533,-17.0867 78.984,-26.292 78.984,-37.2907 C 78.984,-48.2893 83.2653,-57.544 91.8387,-65.0667 C 100.401,-72.5773 111.053,-76.3373 123.772,-76.3373 C 136.64,-76.3373 147.305,-72.5267 155.755,-64.9187 C 164.205,-57.3093 168.437,-47.9933 168.437,-37.0053 C 168.437,-25.7093 164.205,-16.456 155.755,-9.22933 C 147.305,-2.004 136.467,1.608 123.265,1.608 Z M 123.772,-51.3827 C 119.256,-51.3827 115.595,-49.948 112.773,-47.0773 C 109.879,-44.2187 108.431,-40.8173 108.431,-36.8453 C 108.431,-32.9853 109.879,-29.6573 112.773,-26.8853 C 115.595,-24.0267 119.195,-22.604 123.599,-22.604 C 128.264,-22.604 131.988,-24.0267 134.772,-26.8853 C 137.58,-29.756 138.991,-33.22 138.991,-37.2907 C 138.991,-41.1507 137.58,-44.4787 134.772,-47.2507 C 131.876,-50.0093 128.201,-51.3827 123.772,-51.3827 Z "/>
			<path id="dp_path018" fill="black" d="M 235.151,31.4267 L 235.151,-37.464 C 235.151,-41.324 233.653,-44.5413 230.659,-47.1013 C 227.516,-49.688 223.681,-50.9747 219.165,-50.9747 C 214.549,-50.9747 210.851,-49.5893 208.055,-46.792 C 205.172,-43.8973 203.724,-40.4213 203.724,-36.3627 C 203.724,-32.0693 205.629,-28.7293 209.452,-26.3413 C 212.929,-24.1507 217.211,-23.0627 222.295,-23.0627 C 225.66,-23.0627 229.311,-23.656 233.245,-24.844 L 233.245,0 C 228.16,1.39867 223.185,2.10267 218.324,2.10267 C 205.456,2.10267 194.865,-1.75733 186.527,-9.46533 C 178.447,-16.888 174.401,-26.156 174.401,-37.2533 C 174.401,-48.352 178.683,-57.656 187.244,-65.1787 C 195.695,-72.7 206.384,-76.4613 219.325,-76.4613 C 231.957,-76.4613 242.672,-72.8493 251.457,-65.624 C 260.131,-58.3973 264.473,-49.452 264.473,-38.7747 L 264.473,31.4267 Z "/>
			<path id="dp_path019" fill="black" d="M 316.14,1.608 C 304.436,1.608 294.661,-1.50933 286.817,-7.74533 C 278.813,-13.968 274.816,-22.048 274.816,-31.9453 L 274.816,-74.2347 L 304.016,-74.2347 L 304.016,-32.8 C 304.016,-29.7307 305.116,-27.256 307.319,-25.364 C 309.533,-23.384 312.428,-22.3947 316.017,-22.3947 C 319.605,-22.3947 322.561,-23.384 324.876,-25.364 C 327.053,-27.256 328.141,-29.7307 328.141,-32.8 L 328.141,-74.2347 L 357.464,-74.2347 L 357.464,-32.0947 C 357.464,-22.184 353.468,-14.1173 345.463,-7.88133 C 337.471,-1.55867 327.696,1.608 316.14,1.608 Z "/>
			<path id="dp_path020" fill="black" d="M 407.176,-22.728 L 409.589,-22.58 C 409.935,-22.58 410.269,-22.58 410.616,-22.58 C 416.171,-22.58 421.739,-25.5 427.307,-31.3147 L 450.567,-20.328 C 441.633,-5.95067 428.073,1.23733 409.897,1.23733 C 397.179,1.23733 386.651,-2.42533 378.311,-9.74933 C 369.861,-17.0613 365.629,-26.18 365.629,-37.08 C 365.629,-48.2653 370.021,-57.5693 378.819,-64.98 C 387.492,-72.304 398.379,-75.9667 411.469,-75.9667 C 420.971,-75.9667 429.421,-73.6533 436.833,-69.0133 C 444.12,-64.3493 449.217,-58.1747 452.1,-50.4667 Z M 404.887,-23.1613 L 394.284,-35.1867 L 419.611,-50.9253 C 417.185,-52.3973 414.413,-53.1267 411.308,-53.1267 C 406.335,-53.1267 402.067,-51.544 398.479,-48.388 C 394.891,-45.2213 393.096,-41.5093 393.096,-37.2533 C 393.096,-34.0987 394.197,-31.228 396.412,-28.6667 C 398.577,-25.9947 401.411,-24.1507 404.887,-23.1613 Z "/>
		</g>
	</g>
</svg>